0
SECTION
2
HEADER
9
$INSUNITS
70
4
9
$ACADVER
1
AC1014
9
$HANDSEED
5
FFFF
0
ENDSEC
0
SECTION
2
TABLES
0
TABLE
2
VPORT
5
8
100
AcDbSymbolTable
0
ENDTAB
0
TABLE
2
LTYPE
5
5
100
AcDbSymbolTable
0
LTYPE
5
14
100
AcDbSymbolTableRecord
100
AcDbLinetypeTableRecord
2
BYBLOCK
70
0
0
LTYPE
5
15
100
AcDbSymbolTableRecord
100
AcDbLinetypeTableRecord
2
BYLAYER
70
0
0
ENDTAB
0
TABLE
2
LAYER
5
2
100
AcDbSymbolTable
70
2
0
LAYER
5
50
100
AcDbSymbolTableRecord
100
AcDbLayerTableRecord
2
0
70
0
6
CONTINUOUS
0
ENDTAB
0
TABLE
2
STYLE
5
3
100
AcDbSymbolTable
70
1
0
STYLE
5
11
100
AcDbSymbolTableRecord
100
AcDbTextStyleTableRecord
2
STANDARD
70
0
0
ENDTAB
0
TABLE
2
VIEW
5
6
100
AcDbSymbolTable
70
0
0
ENDTAB
0
TABLE
2
UCS
5
7
100
AcDbSymbolTable
70
0
0
ENDTAB
0
TABLE
2
APPID
5
9
100
AcDbSymbolTable
70
2
0
APPID
5
12
100
AcDbSymbolTableRecord
100
AcDbRegAppTableRecord
2
ACAD
70
0
0
ENDTAB
0
TABLE
2
DIMSTYLE
5
A
100
AcDbSymbolTable
70
1
0
ENDTAB
0
TABLE
2
BLOCK_RECORD
5
1
100
AcDbSymbolTable
70
1
0
BLOCK_RECORD
5
1F
100
AcDbSymbolTableRecord
100
AcDbBlockTableRecord
2
*MODEL_SPACE
0
BLOCK_RECORD
5
1B
100
AcDbSymbolTableRecord
100
AcDbBlockTableRecord
2
*PAPER_SPACE
0
ENDTAB
0
ENDSEC
0
SECTION
2
BLOCKS
0
BLOCK
5
20
100
AcDbEntity
100
AcDbBlockBegin
2
*MODEL_SPACE
0
ENDBLK
5
21
100
AcDbEntity
100
AcDbBlockEnd
0
BLOCK
5
1C
100
AcDbEntity
100
AcDbBlockBegin
2
*PAPER_SPACE
0
ENDBLK
5
1D
100
AcDbEntity
100
AcDbBlockEnd
0
ENDSEC
0
SECTION
2
ENTITIES
0
CIRCLE
5
100
100
AcDbEntity
8
0
100
AcDbCircle
10
60.075406288045336
20
62.344185921566115
30
0
40
1.6000000000000016
210
-3.277127261031579e-30
220
-5.6478150668841951e-30
230
1
0
CIRCLE
5
101
100
AcDbEntity
8
0
100
AcDbCircle
10
91.06694835851755
20
76.408849856489738
30
0
40
1.6000000000000016
210
-3.277127261031579e-30
220
-5.6478150668841951e-30
230
1
0
CIRCLE
5
102
100
AcDbEntity
8
0
100
AcDbCircle
10
96.89780978264821
20
21.287216660765477
30
0
40
1.6000000000000016
210
-3.277127261031579e-30
220
-5.6478150668841951e-30
230
1
0
LWPOLYLINE
5
103
100
AcDbEntity
8
0
100
AcDbPolyline
90
4
70
1
43
0.0
10
82.956949872286415
20
68.489180046927729
10
69.80125318128367
20
63.700898040368365
10
65.012971174724314
20
76.856594731371089
10
78.168667865726988
20
81.644876737930446
0
LWPOLYLINE
5
104
100
AcDbEntity
8
0
100
AcDbPolyline
90
4
70
1
43
0.0
10
80.497304609320324
20
45.158272706599064
10
67.341607918317578
20
40.369990700039693
10
62.553325911758193
20
53.52568739104241
10
75.709022602760939
20
58.31396939760176
0
LWPOLYLINE
5
105
100
AcDbEntity
8
0
100
AcDbPolyline
90
4
70
1
43
0.0
10
84.917480800741757
20
36.887163952355522
10
89.705762807301156
20
23.731467261352812
10
76.55006611629841
20
18.943185254793448
10
71.761784109739025
20
32.09888194579618
0
LWPOLYLINE
5
106
100
AcDbEntity
8
0
100
AcDbPolyline
90
4
70
1
43
0.0
10
89.414670726183033
20
50.135355272755589
10
84.626388719623677
20
63.291051963758342
10
97.782085410626422
20
68.07933397031772
10
102.57036741718579
20
54.923637279314967
0
LWPOLYLINE
5
107
100
AcDbEntity
8
0
100
AcDbPolyline
90
4
70
1
43
0.0
10
93.484712081995468
20
42.033069690846069
10
106.64040877299823
20
46.821351697405433
10
111.4286907795576
20
33.665655006402716
10
98.272994088554839
20
28.877372999843352
0
LWPOLYLINE
5
108
100
AcDbEntity
8
0
100
AcDbPolyline
90
14
70
1
43
0.0
10
87.803871162065633
20
12.45510608942099
10
109.52679662856426
20
22.389292688554107
42
0.4042623057782288
10
118.14878967321262
20
44.388343382714453
10
109.29046881659865
20
65.646326801543523
42
0.14369564849898742
10
103.26869318703712
20
73.088939863366193
10
83.655275642137752
20
86.654482630978933
42
0.56953079073110868
10
57.078651718202636
20
74.455223659257783
10
54.61900645523653
20
51.124316318929097
42
0.1284329504811409
10
55.906598707706948
20
42.629626270727528
10
57.218362148101747
20
39.577334625021912
10
54.949922677953815
20
39.577334625021912
10
54.949922677953815
20
27.577334625021912
10
62.37552375383639
20
27.577334625021912
10
65.11505690568778
20
21.202820825481254
42
0.42097236420683909
0
ENDSEC
0
SECTION
2
OBJECTS
0
DICTIONARY
5
C
100
AcDbDictionary
3
ACAD_GROUP
350
D
3
ACAD_MLINESTYLE
350
17
0
DICTIONARY
5
D
100
AcDbDictionary
0
DICTIONARY
5
1A
330
C
100
AcDbDictionary
0
DICTIONARY
5
17
100
AcDbDictionary
0
ENDSEC
0
EOF
