0
SECTION
2
HEADER
9
$INSUNITS
70
4
9
$ACADVER
1
AC1014
9
$HANDSEED
5
FFFF
0
ENDSEC
0
SECTION
2
TABLES
0
TABLE
2
VPORT
5
8
100
AcDbSymbolTable
0
ENDTAB
0
TABLE
2
LTYPE
5
5
100
AcDbSymbolTable
0
LTYPE
5
14
100
AcDbSymbolTableRecord
100
AcDbLinetypeTableRecord
2
BYBLOCK
70
0
0
LTYPE
5
15
100
AcDbSymbolTableRecord
100
AcDbLinetypeTableRecord
2
BYLAYER
70
0
0
ENDTAB
0
TABLE
2
LAYER
5
2
100
AcDbSymbolTable
70
2
0
LAYER
5
50
100
AcDbSymbolTableRecord
100
AcDbLayerTableRecord
2
0
70
0
6
CONTINUOUS
0
ENDTAB
0
TABLE
2
STYLE
5
3
100
AcDbSymbolTable
70
1
0
STYLE
5
11
100
AcDbSymbolTableRecord
100
AcDbTextStyleTableRecord
2
STANDARD
70
0
0
ENDTAB
0
TABLE
2
VIEW
5
6
100
AcDbSymbolTable
70
0
0
ENDTAB
0
TABLE
2
UCS
5
7
100
AcDbSymbolTable
70
0
0
ENDTAB
0
TABLE
2
APPID
5
9
100
AcDbSymbolTable
70
2
0
APPID
5
12
100
AcDbSymbolTableRecord
100
AcDbRegAppTableRecord
2
ACAD
70
0
0
ENDTAB
0
TABLE
2
DIMSTYLE
5
A
100
AcDbSymbolTable
70
1
0
ENDTAB
0
TABLE
2
BLOCK_RECORD
5
1
100
AcDbSymbolTable
70
1
0
BLOCK_RECORD
5
1F
100
AcDbSymbolTableRecord
100
AcDbBlockTableRecord
2
*MODEL_SPACE
0
BLOCK_RECORD
5
1B
100
AcDbSymbolTableRecord
100
AcDbBlockTableRecord
2
*PAPER_SPACE
0
ENDTAB
0
ENDSEC
0
SECTION
2
BLOCKS
0
BLOCK
5
20
100
AcDbEntity
100
AcDbBlockBegin
2
*MODEL_SPACE
0
ENDBLK
5
21
100
AcDbEntity
100
AcDbBlockEnd
0
BLOCK
5
1C
100
AcDbEntity
100
AcDbBlockBegin
2
*PAPER_SPACE
0
ENDBLK
5
1D
100
AcDbEntity
100
AcDbBlockEnd
0
ENDSEC
0
SECTION
2
ENTITIES
0
CIRCLE
5
100
100
AcDbEntity
8
0
100
AcDbCircle
10
50.009097413013748
20
-23.547753985038433
30
0
40
1.6000000000000016
210
2.3706878058526337e-30
220
6.5542545220631425e-30
230
1
0
CIRCLE
5
101
100
AcDbEntity
8
0
100
AcDbCircle
10
83.438261599586966
20
-78.163745854812063
30
0
40
1.6000000000000016
210
2.3706878058526337e-30
220
6.5542545220631425e-30
230
1
0
CIRCLE
5
102
100
AcDbEntity
8
0
100
AcDbCircle
10
87.320820929753026
20
-0.082405192792002549
30
0
40
1.6000000000000016
210
2.3706878058526337e-30
220
6.5542545220631425e-30
230
1
0
CIRCLE
5
103
100
AcDbEntity
8
0
100
AcDbCircle
10
140.28778445358037
20
-32.587824632383189
30
0
40
1.6000000000000016
210
2.3706878058526337e-30
220
6.5542545220631425e-30
230
1
0
LWPOLYLINE
5
104
100
AcDbEntity
8
0
100
AcDbPolyline
90
4
70
1
43
0.0
10
38.200757831207511
20
-39.753607521840735
10
51.356454522210214
20
-34.965325515281357
10
56.144736528769599
20
-48.121022206284067
10
42.98903983776686
20
-52.909304212843445
0
LWPOLYLINE
5
105
100
AcDbEntity
8
0
100
AcDbPolyline
90
4
70
1
43
0.0
10
113.97829661703808
20
-11.749487164228773
10
100.82259992603534
20
-16.537769170788156
10
96.034317919475967
20
-3.3820724797854385
10
109.1900146104787
20
1.4062095267739334
0
LWPOLYLINE
5
106
100
AcDbEntity
8
0
100
AcDbPolyline
90
4
70
1
43
0.0
10
53.878163442965459
20
-63.554712241714483
10
67.033860133968204
20
-58.766430235155134
10
71.822142140527561
20
-71.922126926157844
10
58.666445449524844
20
-76.710408932717215
0
LWPOLYLINE
5
107
100
AcDbEntity
8
0
100
AcDbPolyline
90
4
70
1
43
0.0
10
86.275621846016037
20
-54.15336672240273
10
99.43131853701874
20
-49.365084715843352
10
104.21960054357814
20
-62.520781406846069
10
91.063903852575407
20
-67.30906341340544
0
LWPOLYLINE
5
108
100
AcDbEntity
8
0
100
AcDbPolyline
90
4
70
1
43
0.0
10
66.080613019987553
20
-40.057197267916777
10
79.23630971099027
20
-35.268915261357414
10
84.024591717549669
20
-48.424611952360131
10
70.868895026546923
20
-53.212893958919494
0
LWPOLYLINE
5
109
100
AcDbEntity
8
0
100
AcDbPolyline
90
4
70
1
43
0.0
10
88.220396266742853
20
-29.002592626389262
10
101.37609295774558
20
-24.214310619829909
10
106.16437496430493
20
-37.370007310832619
10
93.008678273302237
20
-42.15828931739199
0
LWPOLYLINE
5
110
100
AcDbEntity
8
0
100
AcDbPolyline
90
4
70
1
43
0.0
10
111.93120715137394
20
-35.090466434151331
10
125.08690384237666
20
-30.302184427591964
10
129.87518584893601
20
-43.457881118594706
10
116.71948915793331
20
-48.246163125154055
0
LWPOLYLINE
5
111
100
AcDbEntity
8
0
100
AcDbPolyline
90
4
70
1
43
0.0
10
121.25068466707411
20
-10.538981777778458
10
134.40638135807689
20
-5.750699771219077
10
139.19466336463626
20
-18.906396462221796
10
126.03896667363351
20
-23.694678468781156
0
LWPOLYLINE
5
112
100
AcDbEntity
8
0
100
AcDbPolyline
90
18
70
1
43
0.0
10
29.827005285830609
20
-33.98114902869915
42
0.2831004128412728
10
30.470460528689919
20
-54.938842967823796
10
46.147866140447853
20
-78.73994768769758
42
0.32883078222272766
10
68.423968164845675
20
-86.946037400484983
10
100.82142656789627
20
-77.544691881173193
42
0.089385808973123343
10
107.17589172462722
20
-74.390613350454046
10
132.83147702998514
20
-55.327713062202662
42
0.14321277498683577
10
139.60141770088632
20
-46.371815915035775
10
148.92089521658653
20
-21.820331258662872
42
0.43970441489540857
10
135.68339265556278
20
4.5173875934111249
10
133.26452862785524
20
5.2039095901666776
10
125.23993518718802
20
13.491788818949512
10
120.43954589638396
20
8.8438962336116393
10
110.46702590796463
20
11.674296891404159
42
0.2126057989339854
10
94.358887379589504
20
9.3644431450541248
10
38.546308205724131
20
-25.736096681846696
10
33.333645677752713
20
-20.14531355599134
10
24.556753656433571
20
-28.328599353646389
0
ENDSEC
0
SECTION
2
OBJECTS
0
DICTIONARY
5
C
100
AcDbDictionary
3
ACAD_GROUP
350
D
3
ACAD_MLINESTYLE
350
17
0
DICTIONARY
5
D
100
AcDbDictionary
0
DICTIONARY
5
1A
330
C
100
AcDbDictionary
0
DICTIONARY
5
17
100
AcDbDictionary
0
ENDSEC
0
EOF
