0
SECTION
2
HEADER
9
$INSUNITS
70
4
9
$ACADVER
1
AC1014
9
$HANDSEED
5
FFFF
0
ENDSEC
0
SECTION
2
TABLES
0
TABLE
2
VPORT
5
8
100
AcDbSymbolTable
0
ENDTAB
0
TABLE
2
LTYPE
5
5
100
AcDbSymbolTable
0
LTYPE
5
14
100
AcDbSymbolTableRecord
100
AcDbLinetypeTableRecord
2
BYBLOCK
70
0
0
LTYPE
5
15
100
AcDbSymbolTableRecord
100
AcDbLinetypeTableRecord
2
BYLAYER
70
0
0
ENDTAB
0
TABLE
2
LAYER
5
2
100
AcDbSymbolTable
70
2
0
LAYER
5
50
100
AcDbSymbolTableRecord
100
AcDbLayerTableRecord
2
0
70
0
6
CONTINUOUS
0
ENDTAB
0
TABLE
2
STYLE
5
3
100
AcDbSymbolTable
70
1
0
STYLE
5
11
100
AcDbSymbolTableRecord
100
AcDbTextStyleTableRecord
2
STANDARD
70
0
0
ENDTAB
0
TABLE
2
VIEW
5
6
100
AcDbSymbolTable
70
0
0
ENDTAB
0
TABLE
2
UCS
5
7
100
AcDbSymbolTable
70
0
0
ENDTAB
0
TABLE
2
APPID
5
9
100
AcDbSymbolTable
70
2
0
APPID
5
12
100
AcDbSymbolTableRecord
100
AcDbRegAppTableRecord
2
ACAD
70
0
0
ENDTAB
0
TABLE
2
DIMSTYLE
5
A
100
AcDbSymbolTable
70
1
0
ENDTAB
0
TABLE
2
BLOCK_RECORD
5
1
100
AcDbSymbolTable
70
1
0
BLOCK_RECORD
5
1F
100
AcDbSymbolTableRecord
100
AcDbBlockTableRecord
2
*MODEL_SPACE
0
BLOCK_RECORD
5
1B
100
AcDbSymbolTableRecord
100
AcDbBlockTableRecord
2
*PAPER_SPACE
0
ENDTAB
0
ENDSEC
0
SECTION
2
BLOCKS
0
BLOCK
5
20
100
AcDbEntity
100
AcDbBlockBegin
2
*MODEL_SPACE
0
ENDBLK
5
21
100
AcDbEntity
100
AcDbBlockEnd
0
BLOCK
5
1C
100
AcDbEntity
100
AcDbBlockBegin
2
*PAPER_SPACE
0
ENDBLK
5
1D
100
AcDbEntity
100
AcDbBlockEnd
0
ENDSEC
0
SECTION
2
ENTITIES
0
LWPOLYLINE
5
100
100
AcDbEntity
8
0
100
AcDbPolyline
90
4
70
1
43
0.0
10
81.782299794998352
20
-141.94881392498985
10
71.057677591332734
20
-150.94784046060138
10
62.05865105572115
20
-140.22321825693575
10
72.783273259386775
20
-131.22419172132422
0
LWPOLYLINE
5
101
100
AcDbEntity
8
0
100
AcDbPolyline
90
4
70
1
43
0.0
10
57.299068617394376
20
-143.78890967706423
10
46.574446413728694
20
-152.78793621267579
10
37.575419878117096
20
-142.06331400901013
10
48.300042081782806
20
-133.06428747339856
0
LWPOLYLINE
5
102
100
AcDbEntity
8
0
100
AcDbPolyline
90
4
70
1
43
0.0
10
12.34331114634368
20
-91.611679597944544
10
21.342337681955268
20
-102.33630180161023
10
10.6177154782896
20
-111.33532833722177
10
1.6186889426780104
20
-100.61070613355609
0
CIRCLE
5
103
100
AcDbEntity
8
0
100
AcDbCircle
10
46.052581698030856
20
-72.274026534957741
30
4.4408920985006262e-15
40
1.6000000000000016
210
-1.9431017388923453e-16
220
-1.5295911071224903e-17
230
1
0
CIRCLE
5
104
100
AcDbEntity
8
0
100
AcDbCircle
10
6.1637846874505051
20
-122.3669348072946
30
-4.4408920985006262e-15
40
1.6000000000000016
210
-1.9431017388923739e-16
220
-1.5295911071223571e-17
230
1
0
CIRCLE
5
105
100
AcDbEntity
8
0
100
AcDbCircle
10
80.864157827195257
20
-99.309955835330754
30
8.8817841970012523e-15
40
1.6000000000000016
210
-1.9431017388923453e-16
220
-1.5295911071224903e-17
230
1
0
CIRCLE
5
106
100
AcDbEntity
8
0
100
AcDbCircle
10
68.434823500205496
20
-160.20012881969751
30
4.4408920985006262e-15
40
1.6000000000000016
210
-1.9431017388923453e-16
220
-1.5295911071224903e-17
230
1
0
LWPOLYLINE
5
107
100
AcDbEntity
8
0
100
AcDbPolyline
90
4
70
1
43
0.0
10
26.785370719752983
20
-66.720545315572181
10
35.784397255364546
20
-77.445167519237856
10
25.059775051698871
20
-86.44419405484939
10
16.060748516087298
20
-75.719571851183701
0
LWPOLYLINE
5
108
100
AcDbEntity
8
0
100
AcDbPolyline
90
4
70
1
43
0.0
10
79.018080647797561
20
-128.3501660755154
10
70.019054112185984
20
-117.6255438718497
10
80.743676315851673
20
-108.62651733623815
10
89.742702851463235
20
-119.35113953990383
0
LWPOLYLINE
5
109
100
AcDbEntity
8
0
100
AcDbPolyline
90
4
70
1
43
0.0
10
29.696595138597736
20
-116.82114798120503
10
38.695621674209299
20
-127.5457701848707
10
27.970999470543628
20
-136.54479672048228
10
18.971972934932065
20
-125.82017451681658
0
LWPOLYLINE
5
110
100
AcDbEntity
8
0
100
AcDbPolyline
90
4
70
1
43
0.0
10
36.035561743184495
20
-93.0228733135136
10
45.034588278796051
20
-103.74749551717929
10
34.309966075130369
20
-112.74652205279085
10
25.310939539518809
20
-102.02189984912515
0
LWPOLYLINE
5
111
100
AcDbEntity
8
0
100
AcDbPolyline
90
4
70
1
43
0.0
10
53.995743989788032
20
-110.04656679238521
10
62.994770525399574
20
-120.7711889960509
10
52.270148321733899
20
-129.77021553166242
10
43.271121786122357
20
-119.04559332799677
0
LWPOLYLINE
5
112
100
AcDbEntity
8
0
100
AcDbPolyline
90
14
70
1
43
0.0
10
43.243436844530613
20
-166.73624690643754
10
54.597965522231043
20
-171.6469350179639
10
57.773593402877637
20
-164.30422519367829
10
81.505655348361358
20
-164.62989967118386
42
0.43970441489540962
10
101.72752287879396
20
-143.18268582029771
10
99.828312364585926
20
-117.03924492068029
42
0.21260579893398493
10
92.148451995861564
20
-102.69256252035703
10
38.190146399762803
20
-60.786590499690988
42
0.42039446673496822
10
9.8719996349089634
20
-64.650098387584364
10
-7.1317343226009635
20
-87.522498001621273
42
0.32883078222272649
10
-7.2240606640927085
20
-111.2618346735327
10
12.690897712262023
20
-138.49003772512867
42
0.089385808973123815
10
17.828117116621193
20
-143.38252335081293
10
31.172113964066078
20
-152.1767575031117
0
ENDSEC
0
SECTION
2
OBJECTS
0
DICTIONARY
5
C
100
AcDbDictionary
3
ACAD_GROUP
350
D
3
ACAD_MLINESTYLE
350
17
0
DICTIONARY
5
D
100
AcDbDictionary
0
DICTIONARY
5
1A
330
C
100
AcDbDictionary
0
DICTIONARY
5
17
100
AcDbDictionary
0
ENDSEC
0
EOF
