0
SECTION
2
HEADER
9
$INSUNITS
70
4
9
$ACADVER
1
AC1014
9
$HANDSEED
5
FFFF
0
ENDSEC
0
SECTION
2
TABLES
0
TABLE
2
VPORT
5
8
100
AcDbSymbolTable
0
ENDTAB
0
TABLE
2
LTYPE
5
5
100
AcDbSymbolTable
0
LTYPE
5
14
100
AcDbSymbolTableRecord
100
AcDbLinetypeTableRecord
2
BYBLOCK
70
0
0
LTYPE
5
15
100
AcDbSymbolTableRecord
100
AcDbLinetypeTableRecord
2
BYLAYER
70
0
0
ENDTAB
0
TABLE
2
LAYER
5
2
100
AcDbSymbolTable
70
2
0
LAYER
5
50
100
AcDbSymbolTableRecord
100
AcDbLayerTableRecord
2
0
70
0
6
CONTINUOUS
0
ENDTAB
0
TABLE
2
STYLE
5
3
100
AcDbSymbolTable
70
1
0
STYLE
5
11
100
AcDbSymbolTableRecord
100
AcDbTextStyleTableRecord
2
STANDARD
70
0
0
ENDTAB
0
TABLE
2
VIEW
5
6
100
AcDbSymbolTable
70
0
0
ENDTAB
0
TABLE
2
UCS
5
7
100
AcDbSymbolTable
70
0
0
ENDTAB
0
TABLE
2
APPID
5
9
100
AcDbSymbolTable
70
2
0
APPID
5
12
100
AcDbSymbolTableRecord
100
AcDbRegAppTableRecord
2
ACAD
70
0
0
ENDTAB
0
TABLE
2
DIMSTYLE
5
A
100
AcDbSymbolTable
70
1
0
ENDTAB
0
TABLE
2
BLOCK_RECORD
5
1
100
AcDbSymbolTable
70
1
0
BLOCK_RECORD
5
1F
100
AcDbSymbolTableRecord
100
AcDbBlockTableRecord
2
*MODEL_SPACE
0
BLOCK_RECORD
5
1B
100
AcDbSymbolTableRecord
100
AcDbBlockTableRecord
2
*PAPER_SPACE
0
ENDTAB
0
ENDSEC
0
SECTION
2
BLOCKS
0
BLOCK
5
20
100
AcDbEntity
100
AcDbBlockBegin
2
*MODEL_SPACE
0
ENDBLK
5
21
100
AcDbEntity
100
AcDbBlockEnd
0
BLOCK
5
1C
100
AcDbEntity
100
AcDbBlockBegin
2
*PAPER_SPACE
0
ENDBLK
5
1D
100
AcDbEntity
100
AcDbBlockEnd
0
ENDSEC
0
SECTION
2
ENTITIES
0
LWPOLYLINE
5
100
100
AcDbEntity
8
0
100
AcDbPolyline
90
17
70
1
43
0.0
10
-162.25982251981688
20
22.712646196563334
10
-163.27407803373063
20
18.034170478714124
42
0.38768487022757803
10
-149.73216353461453
20
-5.2807464789631595
10
-130.94054622815915
20
-14.955558067177243
10
-116.58402289607297
20
-40.357827975762589
42
0.13656644508209936
10
-108.99654867144712
20
-47.938195338588734
10
-86.957274011888543
20
-60.366829591277956
42
0.24946992661883768
10
-68.174620489531705
20
-60.827408093664268
10
-44.041923977190372
20
-48.737061220943076
42
0.096567533193300137
10
-37.981161912535171
20
-44.062525186248457
10
-18.943756026069984
20
-22.412636138466201
42
0.493172214998359
10
-25.094952186336261
20
8.7207001122384558
10
-128.73222954893376
20
59.989178660127919
42
0.48821466803780678
10
-157.14624638972319
20
46.300136161199312
10
-159.65832004315982
20
34.712646196563334
10
-165.34272438790313
20
34.712646196563334
10
-165.34272438790313
20
22.712646196563334
0
LWPOLYLINE
5
101
100
AcDbEntity
8
0
100
AcDbPolyline
90
4
70
1
43
0.0
10
-138.10421916849771
20
22.028501183597339
10
-134.48075253706247
20
8.5055396155506831
10
-148.00371410510917
20
4.8820729841154424
10
-151.62718073654446
20
18.405034552162114
0
LWPOLYLINE
5
102
100
AcDbEntity
8
0
100
AcDbPolyline
90
4
70
1
43
0.0
10
-104.12213736087325
20
-39.090562607955533
10
-107.74560399230857
20
-25.567601039908659
10
-94.222642424261551
20
-21.944134408473378
10
-90.599175792826259
20
-35.46709597652027
0
LWPOLYLINE
5
103
100
AcDbEntity
8
0
100
AcDbPolyline
90
4
70
1
43
0.0
10
-61.573632820408676
20
-25.905888419876678
10
-48.050671252361695
20
-22.282421788441379
10
-44.42720462092641
20
-35.805383356488292
10
-57.950166188973384
20
-39.428849987923556
0
LWPOLYLINE
5
104
100
AcDbEntity
8
0
100
AcDbPolyline
90
4
70
1
43
0.0
10
-85.706329332750002
20
-37.996235292597895
10
-72.183367764703064
20
-34.372768661162617
10
-68.559901133267743
20
-47.895730229209484
10
-82.082862701314667
20
-51.519196860644769
0
LWPOLYLINE
5
105
100
AcDbEntity
8
0
100
AcDbPolyline
90
4
70
1
43
0.0
10
-113.21247694489915
20
-2.1236119556015813
10
-126.73543851294589
20
-5.7470785870368175
10
-130.35890514438111
20
7.7758829810098584
10
-116.83594357633439
20
11.399349612445093
0
LWPOLYLINE
5
106
100
AcDbEntity
8
0
100
AcDbPolyline
90
4
70
1
43
0.0
10
-129.02707609705874
20
37.112984239183419
10
-142.55003766510566
20
33.489517607748141
10
-146.17350429654095
20
47.012479175795036
10
-132.650542728494
20
50.6359458072303
0
LWPOLYLINE
5
107
100
AcDbEntity
8
0
100
AcDbPolyline
90
4
70
1
43
0.0
10
-107.75880050489512
20
26.483832668030971
10
-121.28176207294206
20
22.860366036595693
10
-124.90522870437732
20
36.383327604642581
10
-111.38226713633037
20
40.006794236077859
0
LWPOLYLINE
5
108
100
AcDbEntity
8
0
100
AcDbPolyline
90
4
70
1
43
0.0
10
-42.536226933943489
20
-4.2559993720944149
10
-29.013265365896522
20
-0.63253274065915521
10
-25.389798734461245
20
-14.155494308706038
10
-38.912760302508197
20
-17.778960940141303
0
CIRCLE
5
109
100
AcDbEntity
8
0
100
AcDbCircle
10
-95.88927760115601
20
-50.450582513477904
30
0
40
1.6000000000000014
210
6.8422776578352878e-49
220
1.2325951644078309e-32
230
1
0
CIRCLE
5
110
100
AcDbEntity
8
0
100
AcDbCircle
10
-97.488242441968879
20
39.791446588496335
30
0
40
1.6000000000000014
210
6.8422776578352901e-49
220
1.2325951644078309e-32
230
1
0
CIRCLE
5
111
100
AcDbEntity
8
0
100
AcDbCircle
10
-31.654051041030602
20
-30.431116686517523
30
0
40
1.6000000000000014
210
6.8422776578352908e-49
220
1.2325951644078309e-32
230
1
0
CIRCLE
5
112
100
AcDbEntity
8
0
100
AcDbCircle
10
-139.3510917840768
20
-5.8729496237268242
30
0
40
1.6000000000000014
210
-0
220
0
230
1
0
ENDSEC
0
SECTION
2
OBJECTS
0
DICTIONARY
5
C
100
AcDbDictionary
3
ACAD_GROUP
350
D
3
ACAD_MLINESTYLE
350
17
0
DICTIONARY
5
D
100
AcDbDictionary
0
DICTIONARY
5
1A
330
C
100
AcDbDictionary
0
DICTIONARY
5
17
100
AcDbDictionary
0
ENDSEC
0
EOF
